# xmcd
#
# Track frame offsets:
# 182
# 17990
# 37992
# 67397
#
# Disc length: 1406 seconds
#
#
# Revision: 2
# Processed by: cddbd v1.5PL3 Copyright (c) Steve Scherf et al.
# Submitted via: FreeRIP 2.60 
#
DISCID=34057c04
DTITLE=CJ Lewis - R to the A
DYEAR=1900
DGENRE=blues
TTITLE0=CJ Lewis - R To The A Radio 7" (110 Bpm R&B Feest)
TTITLE1=CJ Lewis - R To The A Album Mix (110 Bpm R&B)
TTITLE2=CJ Lewis - R To The A Drum and Bass Mix (160 Bpm 2 Step)
TTITLE3=CJ Lewis - R To The A Knuckleleads Mix (122 Bpm R&B Groovy)
EXTD=
EXTT0=
EXTT1=
EXTT2=
EXTT3=
PLAYORDER=
